<?xml version="1.0" encoding="utf-8"?>
<!-- Generator: Adobe Illustrator 22.0.1, SVG Export Plug-In . SVG Version: 6.00 Build 0)  -->
<svg version="1.1" xmlns="http://www.w3.org/2000/svg" xmlns:xlink="http://www.w3.org/1999/xlink" x="0px" y="0px"
	 viewBox="0 0 100 139.9" style="enable-background:new 0 0 100 139.9;" xml:space="preserve">
<style type="text/css">
	.st0{fill:#FFFFFF;stroke:#000000;stroke-width:0.3;stroke-miterlimit:10;}
	.st1{fill:#DADCDC;stroke:#000000;stroke-width:0.25;stroke-miterlimit:10;}
	.st2{fill:#F22B16;stroke:#000000;stroke-width:0.3;stroke-miterlimit:10;}
	.st3{fill:#DADCDC;stroke:#000000;stroke-width:0.3;stroke-miterlimit:10;}
	.st4{fill:#F2F7F7;stroke:#000000;stroke-width:0.3;stroke-miterlimit:10;}
	.st5{fill:#F7F9F9;stroke:#000000;stroke-width:0.3;stroke-miterlimit:10;}
	.st6{fill:none;stroke:#000000;stroke-width:0.3;stroke-miterlimit:10;}
	.st7{fill:#B0B2BF;}
	.st8{fill:#E7E7E8;}
	.st9{fill:#F22B16;}
	.st10{fill:#0CE865;}
	.st11{fill:#000BA2;}
	.st12{fill:#B000E7;stroke:#6C00D0;stroke-miterlimit:10;}
	.st13{fill:#B261F2;}
	.st14{fill:#FCFCFC;stroke:#000000;stroke-width:0.3;stroke-miterlimit:10;}
	.st15{fill:#E5E8B1;stroke:#000000;stroke-width:0.2;stroke-miterlimit:10;}
	.st16{fill:none;stroke:#000000;stroke-width:0.2;stroke-miterlimit:10;}
	.st17{fill:#595043;stroke:#000000;stroke-width:0.2;stroke-miterlimit:10;}
	.st18{fill:none;stroke:#000000;stroke-width:0.1;stroke-miterlimit:10;}
	.st19{fill:#050505;stroke:#000000;stroke-width:0.3;stroke-miterlimit:10;}
	.st20{fill:#303333;stroke:#000000;stroke-width:0.3;stroke-miterlimit:10;}
</style>
<g id="primary-life-support">
	<path class="st0" d="M59.9,32.2c0,0,8.6-1.9,10.8,9.5c0,0,4.2,30.9,1.8,34.4s-36.1,5.4-37.2,1.2c-1.1-4.3-1.6-1.6-1.8-14.9
		c0,0-4.5-16.4-3.3-19.4s1.1-3.1,3.3-5.1s4.1-2.3,4.1-2.3L59.9,32.2z"/>
</g>
<g id="right-arm">
	<g id="right-glove">
		<path class="st1" d="M83.1,59.7c0,0,6.5-1.1,7.2-0.2l4.7-0.5c0,0,3.3,0.6-0.4,1.5c-3.6,0.9-3.2,1-2,1.2c1.2,0.1,3.3-0.3,3.3-0.3
			l1.4,0.3c0,0,2,0.8-0.5,1.2L92.6,63c0,0-0.3,0.3,0.7,0.4s3.6,0.1,3.6,0.1l1.2,0.1c0,0,1.6,0.5-0.1,1.3l-5.6,0.3c0,0-0.8,0,0.4,0.2
			c1.2,0.2,3.8,0.6,3.8,0.6s1.3,0.2,0.1,1.4l-3.9,0c0,0-2.4-0.9-3.6-0.3c-1.2,0.6,0.9,1,0.9,1s1.7,0.8,1.1,1.6
			c-0.7,0.8-2.5-1.3-3.5-1.3c-1,0-3.9-1.9-3.9-2.3C83.8,65.7,83.1,59.7,83.1,59.7z"/>
	</g>
	<path class="st0" d="M72.5,57.7c0,0,2.7,8.4,12,9.4c0,0,6.2-2.2,4.6-8.4c0,0-5.3-5.9-7.2-6.5c-1.9-0.7,0,0,0,0"/>
	<path class="st0" d="M72.1,55.9c0,0,0.2,1.5,0.4,1.8c0.3,0.3,4.5-0.9,4.5-0.9s3.1-1.6,4.9-4.6c0,0-1.8-2.8-3.8-2.4"/>
	<path class="st2" d="M58.9,39.1c0,0,0.6-3.2,4.5-1.3c2,1,2.7,2,3,2.8s0.1,1.4,0.1,1.4s0.4,9.2-1.9,11.7c-2.3,2.5,0,0,0,0"/>
	<path class="st0" d="M64.9,54l0.6,2.2c0,0,5.2,0.6,6.7-0.3c0,0,5.8-1.4,6-6.4c0,0-3.4-5-7.1-8.4l-4.4-0.5
		C66.5,40.7,67.4,43.4,64.9,54"/>
</g>
<g id="left-arm">
	<g id="glove-left_1_">
		<path class="st3" d="M16.5,42.8c0,0,1.7-4,2-5.6c0,0,0.2-0.4-0.2-0.7s-1.1-0.9-1.1-0.9s-0.3-0.8-0.5-0.9s-0.8,0.3-0.7,0.9
			c0.2,0.6,0,0.5,0.3,1.2c0.4,0.7-0.2,1.1-0.2,1.1s-0.1,0.9-0.6,0.7c-0.5-0.2-1.5-1.6-1.5-1.6s-1.2-3-1.3-3.3s-1.2-3.1-1.5-3.4
			s-0.2-0.8-1-0.7c-0.8,0-0.4,1.3-0.4,1.3s0.7,1.9,0.8,2c0,0.1,0.6,2.2,0.7,2.3s0,0.4,0,0.4l-0.2,0.1c0,0-0.3-0.9-0.4-1
			c-0.1-0.1-0.5-1.4-0.7-1.5c-0.2-0.1-0.8-1.5-1.1-2c-0.3-0.5-0.8-1.4-0.8-1.4s-0.5-0.4-0.9-0.1C6.9,30.1,7,30.7,7,30.7
			s0.7,1.6,0.8,1.8s1,2.3,1,2.4c0,0.1,0.6,0.9,0.6,0.9s0.2,0.6,0.1,0.6c-0.1,0-0.3-0.1-0.3-0.1l-1.2-2.1l-0.9-1.5l-0.4-0.9
			c0,0-0.3-0.4-0.7-0.3c-0.5,0.1-0.5,0.7-0.5,0.7L6,33.2l1.1,2.1c0,0,0.8,1.6,0.9,1.7c0.2,0.1,0.3,0.6,0.3,0.6s0.1,0.7-0.4,0.4
			l-0.5-0.7c0,0-0.3-0.7-0.9-1l-0.8-1.2c0,0-0.4-0.9-1-0.7s-0.3,0.9-0.3,0.9L6,38.2c0,0,1.1,1.4,1.2,2c0.1,0.7,2.2,4.1,2.2,4.1
			s1.4,1.3,1.6,2.1l0.6,0.7L16.5,42.8z"/>
	</g>
	<path class="st4" d="M20.3,63.1c0,0-9.6-10-8.6-15.6c0,0,4.3-6.4,7.3-4.1s5,4.6,5.7,7.1C25.4,52.9,20.3,63.1,20.3,63.1z"/>
	<path class="st5" d="M23.5,53.7c0,0,4.3-10.1,10.4-9s0,0,0,0s-0.1,8.7,4.2,11.6s0,0,0,0l0.2,1.9c0,0-4.7,3.5-9.2,3.8
		C29,61.9,23.5,56.7,23.5,53.7z"/>
	<path class="st5" d="M23.2,54l-2.8,9.1c0,0,5.4,1.7,8.6-1.2c0,0-5.4-3.8-5.8-8.1L23.2,54z"/>
	<path class="st4" d="M9.1,36.8"/>
</g>
<g id="underwear">
	<path class="st0" d="M41.2,74.8c0,0,13.4,7.5,26-4c0,0,4.9,4.1,5,5.1c0,0-1.9-1.3-5.8,4.3c-3.9,5.6-6,9.3-6.3,9.3s-4.2-2.6-7.4,0.6
		c0,0-8.8-10.3-12.8-11.5c0,0,1.8-2.7,1.1-3.3C40.5,74.7,41.2,74.8,41.2,74.8z"/>
</g>
<g id="left-leg">
	<path class="st0" d="M52.8,90c0,0-2.3,0-6.7,11c0,0-1.7,3,0,13.6c0,0,3.7,2.2,0.8,7.6s-6,7.2-6,7.2s-4.4,2.6-9.2-0.8
		c-4.8-3.4,0-7.6,0-7.6s1.4-1.2,0.8-2.4c0,0-2.1-4.2-2.9-9.9S29,98.4,29,98.4s2.7-10.6,7-15.3c0,0,0.9-6.8,4.3-4.7
		C43.8,80.4,52.8,90,52.8,90z"/>
</g>
<g id="right-leg">
	<path class="st4" d="M60.5,89.2c0,0,6.7,2.6,7.8,13c0,0,1.4,6.7-0.4,11.8c-1.7,5.1,4,8.5,4,8.5s5.6,3.7,11,2.4s0-9.3,0-9.3
		s-2.6-3.4-2.6-3.7s1.7-3.8,1.7-3.8s2-4.8,0.6-13.7c-1.4-9-8.2-17-8.2-17s-0.6-1.3-1.9-1.9C71.3,75,68,75.8,60.5,89.2z"/>
</g>
<g id="textures-in-leg">
	<path class="st2" d="M65.2,93.4c0,0,11.7,1.3,14.8-6.8c0,0,2.1,0.8,2.2,6.2s-14.4,7.5-14.4,7.5S68.2,96.5,65.2,93.4z"/>
	<path class="st0" d="M60.5,89.2l2.3,1.5c0,0,6-10.6,11.6-13.3c0,0-0.3-1.4-1.9-1.9c0,0-2.8-1.2-7.2,5.8
		C60.9,88.5,60.5,89.2,60.5,89.2z"/>
	<path id="ivcl-boot" class="st3" d="M68.6,110.6c0,0,3.6,4.1,11.7,1.3c0,0,4,5.6,4,6.1c0,0,2.7,5.6-1.4,6.9s-9.7-1.7-9.7-1.7
		s-5-2.2-5.6-6.3c0,0-0.1-1.4,0.4-3.3S68.6,110.6,68.6,110.6z"/>
	<path id="ivcl-boot2" class="st3" d="M32.5,118.6c0,0,8.5,3,13.6-4c0,0,3.5,2.5,1.1,6.9c-2.3,4.5-5.2,6.9-5.2,6.9s-2.5,3.1-8.2,1.3
		c-5.7-1.8-4.2-5.3-4.2-5.3s1.1-3.2,2.8-4.3C32.4,120.1,32.8,119.1,32.5,118.6z"/>
	<path class="st6" d="M36,83c0,0,9,2.9,14,9.7"/>
	<path class="st2" d="M31.2,91.8c0,0-0.6,7,16.7,5.1c0,0-2.2,3.7-2.2,5.6c0,0-10.6,1.3-16.7-2.4C29,100.1,28.9,96.8,31.2,91.8z"/>
</g>
<g id="middle">
	<path class="st2" d="M39.8,41.5c0,0-3.8-3.2-5.9,3.1c0,0,1,10.4,4.2,11.6"/>
	<path id="hard-upper-torso" class="st0" d="M39.8,41.6c0,0-3,0.1-2.1,10.9c0.9,10.8,2.6,20.6,2.6,20.6s0.7,4.8,7.7,4.8
		s14.7-2.2,14.7-2.2s7.1-2.5,4.7-11.4c-2.4-8.9-3.9-15.5-3.9-15.5s-1.6-11.4-5.1-9.5c0,0-0.6,3.7-7.5,4.3c-2.4,0.2-3.9,0.3-5.1,0.3
		C43.7,43.8,42.8,43.2,39.8,41.6z"/>
	<path id="drink-bag" class="st7" d="M45.9,44.1c0,0-0.4,3,4.9,2.9s4.6-4.6,4.6-4.6S52.8,43.9,45.9,44.1z"/>
	<path class="st8" d="M40.9,55c0,0-0.4-2,3.5-3.2s11.5-3.2,11.7-3.4s3.9-0.6,5.2,1.8s1.3,8.6,1.3,8.6s0.3,2-2.6,2.4
		s-9.4,2.8-9.4,2.8l-3.1,0.8c0,0-2.9,1.4-4.7-2.4C41.1,58.6,40.9,55,40.9,55z"/>
	<circle class="st9" cx="42.9" cy="47.9" r="2.5"/>
	<circle class="st10" cx="52.7" cy="53.7" r="1.2"/>
	<circle class="st9" cx="53.8" cy="58" r="1.2"/>
	<path id="display-control-module" class="st11" d="M55.3,52.7l-0.1-0.3c-0.1-0.3,0.1-0.7,0.4-0.8l3.8-1.2c0.3-0.1,0.7,0.1,0.8,0.4
		l0.1,0.3c0.1,0.3-0.1,0.7-0.4,0.8l-3.8,1.2C55.8,53.2,55.4,53,55.3,52.7z"/>
	<path id="blue-rec2" class="st11" d="M56.2,54.9l-0.1-0.3c-0.1-0.3,0.1-0.7,0.4-0.8l3.6-1.1c0.3-0.1,0.7,0.1,0.8,0.4l0.1,0.3
		c0.1,0.3-0.1,0.7-0.4,0.8l-3.6,1.1C56.6,55.4,56.3,55.2,56.2,54.9z"/>
	<path id="blue-rec1" class="st11" d="M56.9,57.1l-0.1-0.3c-0.1-0.3,0.1-0.7,0.4-0.8l3.6-1.1c0.3-0.1,0.7,0.1,0.8,0.4l0.1,0.3
		c0.1,0.3-0.1,0.7-0.4,0.8l-3.6,1.1C57.4,57.6,57,57.4,56.9,57.1z"/>
	
		<rect id="temperature-control" x="43.8" y="54" transform="matrix(0.9611 -0.2763 0.2763 0.9611 -14.2339 15.2626)" class="st12" width="6.5" height="8.2"/>
	<polygon id="shine-on-box" class="st13" points="46.4,54.2 44.6,59.4 45.1,61.2 47.5,54.2 	"/>
	<path id="neck" class="st14" d="M39.8,41.5c0,0-0.1-2.7,0.8-2.5c0,0,10.3,6.1,17-2.1c0,0,1.1,0.9,0.9,2.3c-0.2,1.4-3,3.1-3,3.1
		S45,45.9,39.8,41.5z"/>
</g>
<g id="head">
	<ellipse id="helmet" class="st0" cx="48" cy="29.1" rx="12.6" ry="12.1"/>
	<g id="smile">
		<path id="visor_1_" class="st15" d="M39.8,27.6c0,0,2.4-1.9,4.3-1.9c0,0,6.3-0.8,7.4-0.8s3.1-0.3,4.5,1c1.4,1.4,1.8,2,1.8,2
			s0.6,2.2,0.4,2.7c-0.2,0.5,0.1,2.1-0.4,2.5c-0.5,0.4-2.1,3-2.4,3.2c-0.3,0.2-2.8,2-3.4,2.2c-0.7,0.2-5.4,0.1-6.6,0
			c-1.1-0.1-3.3-1-3.8-1.4c-0.2-0.2-0.8-0.9-1.3-1.7c-0.3-0.5-0.6-0.9-0.8-1.3c-0.1-0.2-0.2-0.3-0.3-0.5c-0.4-0.8-1-3.5-0.4-4.2
			C39.4,29,39.1,27.6,39.8,27.6z"/>
		<path class="st16" d="M43.7,34.9c0,0,7,3.4,10.7-1.4"/>
		<path class="st16" d="M44.2,31.1c0,0,1.5-2.3,3.1-0.4"/>
		<path class="st16" d="M49.8,30.4c0,0,1.8-2,3.1,0.1"/>
		<path class="st17" d="M42.6,26c0,0,0.1,1.4-0.5,1.4c0,0,1,0,1.3-0.9c0,0-0.1,2.1-0.9,2.2c0,0,2.4-0.2,2.7-2.9v-0.2L42.6,26z"/>
		<path class="st17" d="M56,26c0,0,0.7,3.8-0.6,4.5c0,0,2.1-0.2,2.4-2.5L56,26z"/>
		<path class="st17" d="M38.9,29.6c0,0,1.5,3.9,2.2,4.1c0,0-1.6-0.9-1.8-1.6c0,0,1.1,2.5,1.6,2.9c0,0-0.9-0.5-1.1-0.8s-1-2.1-1-2.1
			S38.5,29.4,38.9,29.6z"/>
		<path class="st17" d="M40.4,27.2c0,0,0.2,3.5,0.4,3.6c0.2,0.1-1.1-1.4-1.1-2.1c0,0-0.4,1.3,0.1,1.8l-1-0.9
			C38.9,29.6,39.8,26.8,40.4,27.2z"/>
		<path class="st18" d="M48.2,33.5c0,0,0.7-0.8,1.5,0"/>
		<path class="st17" d="M57.8,28.3c0,0-0.6,3.3-0.8,3.3c0,0,0.6-0.2,0.8-0.8c0,0-0.4,1.8-0.8,1.8c0,0,0.7-0.3,1-1.3
			c0,0-0.2,1.3-0.4,1.4l0.5-0.8C58.2,32,58.3,28.4,57.8,28.3z"/>
	</g>
	<g id="visor_2_">
		<path id="visor" class="st19" d="M39.8,27.6c0,0,2.4-1.9,4.3-1.9c0,0,6.3-0.8,7.4-0.8s3.1-0.3,4.5,1c1.4,1.4,1.8,2,1.8,2
			s0.6,2.2,0.4,2.7c-0.2,0.5,0.1,2.1-0.4,2.5c-0.5,0.4-2.1,3-2.4,3.2c-0.3,0.2-2.8,2-3.4,2.2c-0.7,0.2-5.4,0.1-6.6,0
			c-1.1-0.1-3.3-1-3.8-1.4c-0.2-0.2-0.8-0.9-1.3-1.7c-0.3-0.5-0.6-0.9-0.8-1.3c-0.1-0.2-0.2-0.3-0.3-0.5c-0.4-0.8-1-3.5-0.4-4.2
			C39.4,29,39.1,27.6,39.8,27.6z"/>
		<path id="visor-shine" class="st20" d="M39.9,34.7c0,0,0.9,1.7,1.6,1.7s10.3-11,10.7-11.3c0.4-0.3-2.5-0.3-2.9,0
			C48.9,25.5,39.9,34.7,39.9,34.7z"/>
	</g>
</g>
</svg>
